# xmcd CD database file
#
# Track frame offsets:
#	150
#	16303
#	30413
#	50991
#	72558
#	76012
#	90832
#	110003
#	127666
#	133226
#	154078
#	174240
#	191513
#	210120
#	231947
#	291218
#
# Disc length: 4601 seconds
#
# Revision: 3
# Processed by: cddbd v1.5.2PL0 Copyright (c) Steve Scherf et al.
# Submitted via: CDex 1.70beta3
#
DISCID=cd11f710
DTITLE=KASABIAN - Kasabian
DYEAR=2004
DGENRE=Loud Rock
TTITLE0=Club Foot
TTITLE1=Processed Beats
TTITLE2=Reason Is Treason
TTITLE3=I.D.
TTITLE4=Orange
TTITLE5=L.S.F. -Lost Souls Forever-
TTITLE6=Running Batle
TTITLE7=Test Transmission
TTITLE8=Pinch Roller -Interlude-
TTITLE9=Cutt Off
TTITLE10=Butcher Blues
TTITLE11=Ovary Stripe
TTITLE12=U Boat
TTITLE13=Club Foot -Jagz Kooner Vocal Mix-
TTITLE14=Sand Clit
TTITLE15=Making Of Club Foot Video
EXTD=YEAR: 2004
EXTT0=
EXTT1=
EXTT2=
EXTT3=
EXTT4=
EXTT5=
EXTT6=
EXTT7=
EXTT8=
EXTT9=
EXTT10=
EXTT11=
EXTT12=
EXTT13=
EXTT14=
EXTT15=
PLAYORDER=
